<svg width="50" height="50" viewBox="0 0 50 50" fill="none" xmlns="http://www.w3.org/2000/svg">
<path fill-rule="evenodd" clip-rule="evenodd" d="M19.6875 25.1562V43.2812C19.6875 43.5938 19.8437 43.75 20.1562 43.75H27.3438C27.6562 43.75 27.8125 43.5938 27.8125 43.2812V24.8438H33.125C33.4375 24.8438 33.5938 24.6875 33.5938 24.375L34.0625 18.75C34.0625 18.4375 33.9062 18.2812 33.5938 18.2812H27.8125V14.375C27.8125 13.4375 28.5938 12.6563 29.6875 12.6563H33.75C34.2188 12.6563 34.375 12.5 34.375 12.1875V6.71875C34.375 6.40625 34.2188 6.25 33.9063 6.25H27.0312C22.9687 6.25 19.6875 9.21875 19.6875 12.9688V18.2812H16.0938C15.7813 18.2812 15.625 18.4375 15.625 18.75V24.375C15.625 24.6875 15.7813 24.8438 16.0938 24.8438H19.6875V25.1562Z" fill="white"/>
</svg>
