<svg width="62" height="62" viewBox="0 0 62 62" fill="none" xmlns="http://www.w3.org/2000/svg">
<path d="M31.3503 33.275C31.1462 33.2458 30.8837 33.2458 30.6503 33.275C25.517 33.1 21.4336 28.9 21.4336 23.7374C21.4336 18.4583 25.692 14.1708 31.0003 14.1708C36.2795 14.1708 40.567 18.4583 40.567 23.7374C40.5378 28.9 36.4837 33.1 31.3503 33.275Z" stroke="black" stroke-width="3" stroke-linecap="round" stroke-linejoin="round"/>
<path d="M50.6584 52.5253C45.4668 57.2795 38.5834 60.167 31.0001 60.167C23.4168 60.167 16.5335 57.2795 11.3418 52.5253C11.6335 49.7836 13.3835 47.1003 16.5043 45.0003C24.496 39.692 37.5626 39.692 45.4959 45.0003C48.6168 47.1003 50.3668 49.7836 50.6584 52.5253Z" stroke="black" stroke-width="3" stroke-linecap="round" stroke-linejoin="round"/>
<path d="M31.0006 60.1667C47.1088 60.1667 60.1673 47.1082 60.1673 31C60.1673 14.8917 47.1088 1.83333 31.0006 1.83333C14.8923 1.83333 1.83398 14.8917 1.83398 31C1.83398 47.1082 14.8923 60.1667 31.0006 60.1667Z" stroke="black" stroke-width="3" stroke-linecap="round" stroke-linejoin="round"/>
</svg>
