<svg width="42" height="40" viewBox="0 0 42 40" fill="none" xmlns="http://www.w3.org/2000/svg">
<path d="M19.5734 1.39057C20.0224 0.00860763 21.9776 0.00861025 22.4266 1.39058L26.2761 13.2381C26.4769 13.8561 27.0528 14.2746 27.7027 14.2746H40.1599C41.613 14.2746 42.2171 16.134 41.0416 16.9881L30.9635 24.3103C30.4377 24.6922 30.2177 25.3693 30.4186 25.9873L34.2681 37.8349C34.7171 39.2168 33.1354 40.366 31.9598 39.5119L21.8817 32.1897C21.3559 31.8078 20.6441 31.8078 20.1183 32.1897L10.0402 39.5119C8.86464 40.366 7.28292 39.2168 7.73195 37.8349L11.5814 25.9873C11.7823 25.3693 11.5623 24.6922 11.0365 24.3103L0.958431 16.9881C-0.217139 16.134 0.387027 14.2746 1.84011 14.2746H14.2973C14.9472 14.2746 15.5231 13.8561 15.7239 13.2381L19.5734 1.39057Z" fill="#FACC15"/>
</svg>
