<svg width="44" height="60" viewBox="0 0 44 60" fill="none" xmlns="http://www.w3.org/2000/svg">
<path d="M21.9922 -0.0078125C9.8656 -0.0078125 -0.00585408 9.86368 -0.00585937 21.9902C-0.00586693 43.3277 20.752 59.5493 20.752 59.5493C21.1064 59.832 21.5462 59.986 21.9996 59.986C22.4529 59.986 22.8927 59.832 23.2471 59.5493C23.2471 59.5493 44.005 43.3277 44.005 21.9902C44.0049 9.86368 34.1187 -0.0078125 21.9922 -0.0078125ZM21.9922 3.99317C31.957 3.99317 40.004 12.0254 40.004 21.9902C40.004 39.446 24.1975 53.2374 22.0069 55.1054C19.8268 53.2468 3.99512 39.4528 3.99512 21.9902C3.99513 12.0254 12.0274 3.99317 21.9922 3.99317Z" fill="black"/>
<path d="M21.9931 11.9951C16.494 11.9951 11.9981 16.4911 11.998 21.9902C11.998 27.4894 16.4939 32 21.9931 32C27.4923 32 32.003 27.4894 32.003 21.9902C32.003 16.4911 27.4923 11.9951 21.9931 11.9951ZM21.9931 15.9961C25.3305 15.9961 28.002 18.6528 28.002 21.9902C28.002 25.3276 25.3305 27.9991 21.9931 27.9991C18.6557 27.9991 15.999 25.3276 15.999 21.9902C15.999 18.6528 18.6557 15.9961 21.9931 15.9961Z" fill="black"/>
</svg>
