<svg width="50" height="50" viewBox="0 0 50 50" fill="none" xmlns="http://www.w3.org/2000/svg">
<path d="M45.3125 16.4062V24.2188C45.3125 24.4239 45.2721 24.6271 45.1936 24.8167C45.1151 25.0063 45 25.1785 44.8549 25.3236C44.7098 25.4687 44.5375 25.5838 44.3479 25.6623C44.1584 25.7408 43.9552 25.7813 43.75 25.7812C40.486 25.7884 37.269 25.0038 34.3749 23.4946L34.375 30.4688C34.3746 33.2925 33.5687 36.0576 32.052 38.4394C30.5353 40.8213 28.3707 42.7211 25.8122 43.9159C23.2537 45.1108 20.4074 45.5511 17.6075 45.1851C14.8076 44.8191 12.1701 43.6621 10.0046 41.8499C7.83914 40.0376 6.23551 37.6452 5.38193 34.9536C4.52835 32.2619 4.46023 29.3826 5.18556 26.6536C5.9109 23.9246 7.3996 21.4591 9.47695 19.5465C11.5543 17.6338 14.1341 16.3534 16.9136 15.8554C17.1385 15.8154 17.3693 15.8251 17.59 15.8839C17.8107 15.9427 18.0158 16.0492 18.1909 16.1959C18.366 16.3425 18.5068 16.5258 18.6034 16.7327C18.7 16.9397 18.75 17.1653 18.75 17.3937L18.7499 25.5263C18.7499 25.8219 18.6661 26.1113 18.5082 26.3611C18.3504 26.611 18.1249 26.8109 17.8579 26.9377C17.2261 27.2371 16.6861 27.7005 16.2945 28.2797C15.9028 28.8589 15.6737 29.5326 15.6312 30.2305C15.5886 30.9284 15.7342 31.625 16.0526 32.2474C16.371 32.8699 16.8507 33.3955 17.4415 33.7695C18.0323 34.1434 18.7127 34.3519 19.4116 34.3732C20.1104 34.3945 20.8022 34.2279 21.4147 33.8907C22.0273 33.5535 22.5381 33.0581 22.8939 32.4562C23.2497 31.8543 23.4374 31.1679 23.4375 30.4688V5.46875C23.4375 5.26356 23.4779 5.06037 23.5564 4.8708C23.6349 4.68123 23.75 4.50898 23.8951 4.36388C24.0402 4.21879 24.2125 4.1037 24.4021 4.02518C24.5916 3.94666 24.7948 3.90624 25 3.90625H32.8125C33.0177 3.90624 33.2209 3.94666 33.4104 4.02518C33.6 4.1037 33.7723 4.21879 33.9174 4.36388C34.0625 4.50898 34.1776 4.68123 34.2561 4.8708C34.3346 5.06037 34.375 5.26356 34.375 5.46875C34.3778 7.95429 35.3664 10.3372 37.124 12.0948C38.8815 13.8523 41.2645 14.8409 43.75 14.8438C43.9552 14.8437 44.1584 14.8842 44.3479 14.9627C44.5375 15.0412 44.7098 15.1563 44.8549 15.3014C45 15.4465 45.1151 15.6187 45.1936 15.8083C45.2721 15.9979 45.3125 16.2011 45.3125 16.4062Z" fill="white"/>
</svg>
