<svg width="50" height="50" viewBox="0 0 50 50" fill="none" xmlns="http://www.w3.org/2000/svg">
<path d="M11.6771 23.8369C12.0689 27.3631 12.2648 29.126 13.4513 30.1881C14.6378 31.25 16.4117 31.25 19.9595 31.25H20.2214H28.0645H30.8904C33.3345 31.25 34.5564 31.25 35.5481 30.6529C36.5397 30.0558 37.1116 28.9758 38.2552 26.8158L43.3972 17.1031C44.5029 15.0146 42.9889 12.5 40.6258 12.5H20.2214H19.728C15.3828 12.5 13.2102 12.5 11.968 13.8878C10.7259 15.2756 10.9658 17.435 11.4456 21.7535L11.6771 23.8369Z" stroke="#757575" stroke-width="3" stroke-linejoin="round"/>
<path d="M6.25 6.25H7.29167C8.67542 6.25 9.83787 7.29046 9.99069 8.66573L11.5741 22.9167" stroke="#757575" stroke-width="3" stroke-linecap="round" stroke-linejoin="round"/>
<path d="M18.75 40.625C18.75 42.3508 17.3509 43.75 15.625 43.75C13.8991 43.75 12.5 42.3508 12.5 40.625C12.5 38.8992 13.8991 37.5 15.625 37.5C17.3509 37.5 18.75 38.8992 18.75 40.625Z" stroke="#757575" stroke-width="3"/>
<path d="M37.5 40.625C37.5 42.3508 36.1008 43.75 34.375 43.75C32.6492 43.75 31.25 42.3508 31.25 40.625C31.25 38.8992 32.6492 37.5 34.375 37.5C36.1008 37.5 37.5 38.8992 37.5 40.625Z" stroke="#757575" stroke-width="3"/>
</svg>
